<svg xmlns="http://www.w3.org/2000/svg" width="874" height="428" viewBox="0 0 874 428">
<style>

svg{--fondo:#fcfcfb;--inchiostro:#0b0b0b;--inchiostro-2:#52514e;
    --inchiostro-3:#6f6e69;--riquadro:#f6f6f4;--linea:#d9d8d2;--griglia:#e8e7e2}
@media (prefers-color-scheme:dark){
svg{--fondo:#1a1a19;--inchiostro:#ffffff;--inchiostro-2:#c3c2b7;
    --inchiostro-3:#a3a299;--riquadro:#232322;--linea:#3a3a37;--griglia:#2e2e2c}}
text{font-family:"DejaVu Sans",sans-serif;fill:var(--inchiostro)}
.titolo{font-size:15px;font-weight:600}
.sotto{font-size:11px;fill:var(--inchiostro-2)}
.asse{font-size:12px;fill:var(--inchiostro-2);text-anchor:middle}
.tacca-x{font-size:10px;fill:var(--inchiostro-3);text-anchor:middle}
.tacca-y{font-size:10px;fill:var(--inchiostro-3);text-anchor:end}
.legenda{font-size:11px;fill:var(--inchiostro-2)}
.valore{font-size:9px;fill:var(--inchiostro-2);text-anchor:middle}
.cella{font-size:9px;text-anchor:middle}
.nota{font-size:11px;fill:var(--inchiostro-2)}
.enorme{font-size:46px;font-weight:600}
.riquadro{fill:var(--riquadro);stroke:var(--linea)}
.griglia{stroke:var(--griglia);stroke-width:1}

.s0{stroke:#2a78d6;fill:#2a78d6}
.s1{stroke:#eb6834;fill:#eb6834}
@media (prefers-color-scheme:dark){
.s0{stroke:#3987e5;fill:#3987e5}
.s1{stroke:#d95926;fill:#d95926}
}
</style>
<rect width="874" height="428" fill="var(--fondo)"/>
<text x="74" y="28" class="titolo">Scaling forte</text>
<text x="74" y="44" class="sotto">stesso problema, piu' unita' di calcolo</text>
<rect x="74" y="58" width="300" height="250" class="riquadro"/>
<text x="22" y="183.0" class="asse" transform="rotate(-90 22 183.0)">speedup</text>
<text x="224.0" y="350" class="asse">unita' (processi oppure thread)</text>
<line x1="74" y1="293.0" x2="374" y2="293.0" class="griglia"/>
<text x="66" y="297.0" class="tacca-y">1</text>
<line x1="74" y1="161.1" x2="374" y2="161.1" class="griglia"/>
<text x="66" y="165.1" class="tacca-y">10</text>
<text x="74.0" y="328" class="tacca-x">1</text>
<line x1="74.0" y1="308" x2="74.0" y2="313" class="griglia"/>
<text x="125.7" y="328" class="tacca-x">2</text>
<line x1="125.7" y1="308" x2="125.7" y2="313" class="griglia"/>
<text x="177.3" y="328" class="tacca-x">4</text>
<line x1="177.3" y1="308" x2="177.3" y2="313" class="griglia"/>
<text x="219.0" y="328" class="tacca-x">7</text>
<line x1="219.0" y1="308" x2="219.0" y2="313" class="griglia"/>
<text x="270.7" y="328" class="tacca-x">14</text>
<line x1="270.7" y1="308" x2="270.7" y2="313" class="griglia"/>
<text x="322.3" y="328" class="tacca-x">28</text>
<line x1="322.3" y1="308" x2="322.3" y2="313" class="griglia"/>
<text x="374.0" y="328" class="tacca-x">56</text>
<line x1="374.0" y1="308" x2="374.0" y2="313" class="griglia"/>
<path d="M74.0,293.0 L125.7,262.0 L177.3,243.2 L219.0,205.7 L229.0,216.5 L270.7,181.5 L322.3,165.8 L374.0,129.9" fill="none" stroke="#2a78d6" stroke-width="2" stroke-linejoin="round"/>
<circle cx="74.0" cy="293.0" r="4.5" fill="#2a78d6" stroke="var(--riquadro)" stroke-width="2"/>
<circle cx="125.7" cy="262.0" r="4.5" fill="#2a78d6" stroke="var(--riquadro)" stroke-width="2"/>
<circle cx="177.3" cy="243.2" r="4.5" fill="#2a78d6" stroke="var(--riquadro)" stroke-width="2"/>
<circle cx="219.0" cy="205.7" r="4.5" fill="#2a78d6" stroke="var(--riquadro)" stroke-width="2"/>
<circle cx="229.0" cy="216.5" r="4.5" fill="#2a78d6" stroke="var(--riquadro)" stroke-width="2"/>
<circle cx="270.7" cy="181.5" r="4.5" fill="#2a78d6" stroke="var(--riquadro)" stroke-width="2"/>
<circle cx="322.3" cy="165.8" r="4.5" fill="#2a78d6" stroke="var(--riquadro)" stroke-width="2"/>
<circle cx="374.0" cy="129.9" r="4.5" fill="#2a78d6" stroke="var(--riquadro)" stroke-width="2"/>
<path d="M74.0,293.0 L125.7,255.1 L177.3,219.0 L219.0,189.0 L229.0,181.8 L270.7,154.5 L322.3,138.7 L374.0,115.9" fill="none" stroke="#2a78d6" stroke-width="2" stroke-linejoin="round" stroke-dasharray="6,4"/>
<path d="M74.0,293.0 L125.7,253.8 L177.3,216.7 L219.0,180.0 L229.0,179.5 L270.7,144.0 L322.3,124.1 L374.0,85.6" fill="none" stroke="#eb6834" stroke-width="2" stroke-linejoin="round"/>
<circle cx="74.0" cy="293.0" r="4.5" fill="#eb6834" stroke="var(--riquadro)" stroke-width="2"/>
<circle cx="125.7" cy="253.8" r="4.5" fill="#eb6834" stroke="var(--riquadro)" stroke-width="2"/>
<circle cx="177.3" cy="216.7" r="4.5" fill="#eb6834" stroke="var(--riquadro)" stroke-width="2"/>
<circle cx="219.0" cy="180.0" r="4.5" fill="#eb6834" stroke="var(--riquadro)" stroke-width="2"/>
<circle cx="229.0" cy="179.5" r="4.5" fill="#eb6834" stroke="var(--riquadro)" stroke-width="2"/>
<circle cx="270.7" cy="144.0" r="4.5" fill="#eb6834" stroke="var(--riquadro)" stroke-width="2"/>
<circle cx="322.3" cy="124.1" r="4.5" fill="#eb6834" stroke="var(--riquadro)" stroke-width="2"/>
<circle cx="374.0" cy="85.6" r="4.5" fill="#eb6834" stroke="var(--riquadro)" stroke-width="2"/>
<path d="M74.0,293.0 L125.7,293.7 L177.3,295.7 L219.0,295.7 L229.0,296.8 L270.7,295.3 L322.3,304.1 L374.0,305.5" fill="none" stroke="#eb6834" stroke-width="2" stroke-linejoin="round" stroke-dasharray="6,4"/>
<path d="M74.0,293.0 L125.7,253.3 L177.3,213.6 L219.0,181.5 L229.0,173.9 L270.7,141.8 L322.3,102.1 L374.0,62.4" fill="none" stroke="#8a8a83" stroke-width="2" stroke-linejoin="round"/>
<rect x="82.0" y="66.0" width="159.6" height="83.0" fill="var(--riquadro)" opacity="0.92"/>
<line x1="90.0" y1="80.0" x2="116.0" y2="80.0" stroke="#2a78d6" stroke-width="2"/>
<text x="122.0" y="84.0" class="legenda">schur, processi</text>
<line x1="90.0" y1="95.0" x2="116.0" y2="95.0" stroke="#2a78d6" stroke-width="2" stroke-dasharray="6,4"/>
<text x="122.0" y="99.0" class="legenda">schur, thread</text>
<line x1="90.0" y1="110.0" x2="116.0" y2="110.0" stroke="#eb6834" stroke-width="2"/>
<text x="122.0" y="114.0" class="legenda">pipeline, processi</text>
<line x1="90.0" y1="125.0" x2="116.0" y2="125.0" stroke="#eb6834" stroke-width="2" stroke-dasharray="6,4"/>
<text x="122.0" y="129.0" class="legenda">pipeline, thread</text>
<line x1="90.0" y1="140.0" x2="116.0" y2="140.0" stroke="#8a8a83" stroke-width="2"/>
<text x="122.0" y="144.0" class="legenda">ideale</text>
<text x="474" y="28" class="titolo">Scaling debole</text>
<text x="474" y="44" class="sotto">celle per processo costanti</text>
<rect x="474" y="58" width="300" height="250" class="riquadro"/>
<text x="422" y="183.0" class="asse" transform="rotate(-90 422 183.0)">efficienza</text>
<text x="624.0" y="350" class="asse">processi</text>
<line x1="474" y1="308.0" x2="774" y2="308.0" class="griglia"/>
<text x="466" y="312.0" class="tacca-y">0</text>
<line x1="474" y1="224.7" x2="774" y2="224.7" class="griglia"/>
<text x="466" y="228.7" class="tacca-y">0.5</text>
<line x1="474" y1="141.3" x2="774" y2="141.3" class="griglia"/>
<text x="466" y="145.3" class="tacca-y">1</text>
<line x1="474" y1="58.0" x2="774" y2="58.0" class="griglia"/>
<text x="466" y="62.0" class="tacca-y">1.5</text>
<text x="474.0" y="328" class="tacca-x">1</text>
<line x1="474.0" y1="308" x2="474.0" y2="313" class="griglia"/>
<text x="525.7" y="328" class="tacca-x">2</text>
<line x1="525.7" y1="308" x2="525.7" y2="313" class="griglia"/>
<text x="577.3" y="328" class="tacca-x">4</text>
<line x1="577.3" y1="308" x2="577.3" y2="313" class="griglia"/>
<text x="629.0" y="328" class="tacca-x">8</text>
<line x1="629.0" y1="308" x2="629.0" y2="313" class="griglia"/>
<text x="722.3" y="328" class="tacca-x">28</text>
<line x1="722.3" y1="308" x2="722.3" y2="313" class="griglia"/>
<text x="774.0" y="328" class="tacca-x">56</text>
<line x1="774.0" y1="308" x2="774.0" y2="313" class="griglia"/>
<path d="M474.0,141.3 L525.7,168.9 L577.3,205.6 L629.0,229.2 L722.3,250.3 L774.0,246.6" fill="none" stroke="#2a78d6" stroke-width="2" stroke-linejoin="round"/>
<circle cx="474.0" cy="141.3" r="4.5" fill="#2a78d6" stroke="var(--riquadro)" stroke-width="2"/>
<circle cx="525.7" cy="168.9" r="4.5" fill="#2a78d6" stroke="var(--riquadro)" stroke-width="2"/>
<circle cx="577.3" cy="205.6" r="4.5" fill="#2a78d6" stroke="var(--riquadro)" stroke-width="2"/>
<circle cx="629.0" cy="229.2" r="4.5" fill="#2a78d6" stroke="var(--riquadro)" stroke-width="2"/>
<circle cx="722.3" cy="250.3" r="4.5" fill="#2a78d6" stroke="var(--riquadro)" stroke-width="2"/>
<circle cx="774.0" cy="246.6" r="4.5" fill="#2a78d6" stroke="var(--riquadro)" stroke-width="2"/>
<path d="M474.0,141.3 L525.7,156.3 L577.3,167.3 L629.0,174.0 L722.3,212.5 L774.0,202.1" fill="none" stroke="#eb6834" stroke-width="2" stroke-linejoin="round"/>
<circle cx="474.0" cy="141.3" r="4.5" fill="#eb6834" stroke="var(--riquadro)" stroke-width="2"/>
<circle cx="525.7" cy="156.3" r="4.5" fill="#eb6834" stroke="var(--riquadro)" stroke-width="2"/>
<circle cx="577.3" cy="167.3" r="4.5" fill="#eb6834" stroke="var(--riquadro)" stroke-width="2"/>
<circle cx="629.0" cy="174.0" r="4.5" fill="#eb6834" stroke="var(--riquadro)" stroke-width="2"/>
<circle cx="722.3" cy="212.5" r="4.5" fill="#eb6834" stroke="var(--riquadro)" stroke-width="2"/>
<circle cx="774.0" cy="202.1" r="4.5" fill="#eb6834" stroke="var(--riquadro)" stroke-width="2"/>
<path d="M474.0,141.3 L525.7,141.3 L577.3,141.3 L629.0,141.3 L722.3,141.3 L774.0,141.3" fill="none" stroke="#8a8a83" stroke-width="2" stroke-linejoin="round"/>
<rect x="668.4" y="66.0" width="97.6" height="53.0" fill="var(--riquadro)" opacity="0.92"/>
<line x1="676.4" y1="80.0" x2="702.4" y2="80.0" stroke="#2a78d6" stroke-width="2"/>
<text x="708.4" y="84.0" class="legenda">schur</text>
<line x1="676.4" y1="95.0" x2="702.4" y2="95.0" stroke="#eb6834" stroke-width="2"/>
<text x="708.4" y="99.0" class="legenda">pipeline</text>
<line x1="676.4" y1="110.0" x2="702.4" y2="110.0" stroke="#8a8a83" stroke-width="2"/>
<text x="708.4" y="114.0" class="legenda">ideale</text>
</svg>