<svg xmlns="http://www.w3.org/2000/svg" width="874" height="452" viewBox="0 0 874 452">
<style>

svg{--fondo:#fcfcfb;--inchiostro:#0b0b0b;--inchiostro-2:#52514e;
    --inchiostro-3:#6f6e69;--riquadro:#f6f6f4;--linea:#d9d8d2;--griglia:#e8e7e2}
@media (prefers-color-scheme:dark){
svg{--fondo:#1a1a19;--inchiostro:#ffffff;--inchiostro-2:#c3c2b7;
    --inchiostro-3:#a3a299;--riquadro:#232322;--linea:#3a3a37;--griglia:#2e2e2c}}
text{font-family:"DejaVu Sans",sans-serif;fill:var(--inchiostro)}
.titolo{font-size:15px;font-weight:600}
.sotto{font-size:11px;fill:var(--inchiostro-2)}
.asse{font-size:12px;fill:var(--inchiostro-2);text-anchor:middle}
.tacca-x{font-size:10px;fill:var(--inchiostro-3);text-anchor:middle}
.tacca-y{font-size:10px;fill:var(--inchiostro-3);text-anchor:end}
.legenda{font-size:11px;fill:var(--inchiostro-2)}
.valore{font-size:9px;fill:var(--inchiostro-2);text-anchor:middle}
.cella{font-size:9px;text-anchor:middle}
.nota{font-size:11px;fill:var(--inchiostro-2)}
.enorme{font-size:46px;font-weight:600}
.riquadro{fill:var(--riquadro);stroke:var(--linea)}
.griglia{stroke:var(--griglia);stroke-width:1}

.s0{stroke:#2a78d6;fill:#2a78d6}
.s1{stroke:#eb6834;fill:#eb6834}
@media (prefers-color-scheme:dark){
.s0{stroke:#3987e5;fill:#3987e5}
.s1{stroke:#d95926;fill:#d95926}
}
</style>
<rect width="874" height="452" fill="var(--fondo)"/>
<text x="74" y="28" class="titolo">Scaling forte</text>
<text x="74" y="44" class="sotto">stesso problema, piu' unita' di calcolo</text>
<rect x="74" y="58" width="300" height="250" class="riquadro"/>
<text x="22" y="183.0" class="asse" transform="rotate(-90 22 183.0)">speedup</text>
<text x="224.0" y="350" class="asse">unita' (processi oppure thread)</text>
<line x1="74" y1="307.2" x2="374" y2="307.2" class="griglia"/>
<text x="66" y="311.2" class="tacca-y">0.2</text>
<line x1="74" y1="267.2" x2="374" y2="267.2" class="griglia"/>
<text x="66" y="271.2" class="tacca-y">0.5</text>
<line x1="74" y1="237.0" x2="374" y2="237.0" class="griglia"/>
<text x="66" y="241.0" class="tacca-y">1</text>
<line x1="74" y1="206.8" x2="374" y2="206.8" class="griglia"/>
<text x="66" y="210.8" class="tacca-y">2</text>
<line x1="74" y1="166.8" x2="374" y2="166.8" class="griglia"/>
<text x="66" y="170.8" class="tacca-y">5</text>
<line x1="74" y1="136.5" x2="374" y2="136.5" class="griglia"/>
<text x="66" y="140.5" class="tacca-y">10</text>
<line x1="74" y1="106.3" x2="374" y2="106.3" class="griglia"/>
<text x="66" y="110.3" class="tacca-y">20</text>
<line x1="74" y1="66.3" x2="374" y2="66.3" class="griglia"/>
<text x="66" y="70.3" class="tacca-y">50</text>
<text x="74.0" y="328" class="tacca-x">1</text>
<line x1="74.0" y1="308" x2="74.0" y2="313" class="griglia"/>
<text x="125.7" y="328" class="tacca-x">2</text>
<line x1="125.7" y1="308" x2="125.7" y2="313" class="griglia"/>
<text x="177.3" y="328" class="tacca-x">4</text>
<line x1="177.3" y1="308" x2="177.3" y2="313" class="griglia"/>
<text x="219.0" y="328" class="tacca-x">7</text>
<line x1="219.0" y1="308" x2="219.0" y2="313" class="griglia"/>
<text x="270.7" y="328" class="tacca-x">14</text>
<line x1="270.7" y1="308" x2="270.7" y2="313" class="griglia"/>
<text x="322.3" y="328" class="tacca-x">28</text>
<line x1="322.3" y1="308" x2="322.3" y2="313" class="griglia"/>
<text x="374.0" y="328" class="tacca-x">56</text>
<line x1="374.0" y1="308" x2="374.0" y2="313" class="griglia"/>
<path d="M74.0,237.0 L125.7,213.5 L177.3,203.2 L219.0,172.5 L229.0,184.6 L270.7,157.8 L322.3,146.9 L374.0,119.0" fill="none" stroke="#2a78d6" stroke-width="2" stroke-linejoin="round"/>
<circle cx="74.0" cy="237.0" r="4.5" fill="#2a78d6" stroke="var(--riquadro)" stroke-width="2"/>
<circle cx="125.7" cy="213.5" r="4.5" fill="#2a78d6" stroke="var(--riquadro)" stroke-width="2"/>
<circle cx="177.3" cy="203.2" r="4.5" fill="#2a78d6" stroke="var(--riquadro)" stroke-width="2"/>
<circle cx="219.0" cy="172.5" r="4.5" fill="#2a78d6" stroke="var(--riquadro)" stroke-width="2"/>
<circle cx="229.0" cy="184.6" r="4.5" fill="#2a78d6" stroke="var(--riquadro)" stroke-width="2"/>
<circle cx="270.7" cy="157.8" r="4.5" fill="#2a78d6" stroke="var(--riquadro)" stroke-width="2"/>
<circle cx="322.3" cy="146.9" r="4.5" fill="#2a78d6" stroke="var(--riquadro)" stroke-width="2"/>
<circle cx="374.0" cy="119.0" r="4.5" fill="#2a78d6" stroke="var(--riquadro)" stroke-width="2"/>
<path d="M74.0,237.0 L125.7,206.9 L177.3,179.0 L219.0,156.6 L229.0,152.3 L270.7,134.4 L322.3,127.1 L374.0,118.0" fill="none" stroke="#2a78d6" stroke-width="2" stroke-linejoin="round" stroke-dasharray="6,4"/>
<path d="M74.0,237.0 L125.7,208.4 L177.3,180.1 L219.0,158.3 L229.0,153.5 L270.7,133.1 L322.3,118.0 L374.0,88.5" fill="none" stroke="#eb6834" stroke-width="2" stroke-linejoin="round"/>
<circle cx="74.0" cy="237.0" r="4.5" fill="#eb6834" stroke="var(--riquadro)" stroke-width="2"/>
<circle cx="125.7" cy="208.4" r="4.5" fill="#eb6834" stroke="var(--riquadro)" stroke-width="2"/>
<circle cx="177.3" cy="180.1" r="4.5" fill="#eb6834" stroke="var(--riquadro)" stroke-width="2"/>
<circle cx="219.0" cy="158.3" r="4.5" fill="#eb6834" stroke="var(--riquadro)" stroke-width="2"/>
<circle cx="229.0" cy="153.5" r="4.5" fill="#eb6834" stroke="var(--riquadro)" stroke-width="2"/>
<circle cx="270.7" cy="133.1" r="4.5" fill="#eb6834" stroke="var(--riquadro)" stroke-width="2"/>
<circle cx="322.3" cy="118.0" r="4.5" fill="#eb6834" stroke="var(--riquadro)" stroke-width="2"/>
<circle cx="374.0" cy="88.5" r="4.5" fill="#eb6834" stroke="var(--riquadro)" stroke-width="2"/>
<path d="M74.0,237.0 L125.7,226.0 L177.3,222.4 L219.0,239.6 L229.0,262.3 L270.7,244.4 L322.3,266.9 L374.0,296.6" fill="none" stroke="#eb6834" stroke-width="2" stroke-linejoin="round" stroke-dasharray="6,4"/>
<path d="M74.0,237.0 L125.7,206.8 L177.3,176.5 L219.0,152.1 L229.0,146.3 L270.7,121.8 L322.3,91.6 L374.0,61.4" fill="none" stroke="#8a8a83" stroke-width="2" stroke-linejoin="round"/>
<text x="474" y="28" class="titolo">Scaling debole</text>
<text x="474" y="44" class="sotto">celle per processo costanti</text>
<rect x="474" y="58" width="300" height="250" class="riquadro"/>
<text x="422" y="183.0" class="asse" transform="rotate(-90 422 183.0)">efficienza</text>
<text x="624.0" y="350" class="asse">processi</text>
<line x1="474" y1="308.0" x2="774" y2="308.0" class="griglia"/>
<text x="466" y="312.0" class="tacca-y">0</text>
<line x1="474" y1="224.7" x2="774" y2="224.7" class="griglia"/>
<text x="466" y="228.7" class="tacca-y">0.5</text>
<line x1="474" y1="141.3" x2="774" y2="141.3" class="griglia"/>
<text x="466" y="145.3" class="tacca-y">1</text>
<line x1="474" y1="58.0" x2="774" y2="58.0" class="griglia"/>
<text x="466" y="62.0" class="tacca-y">1.5</text>
<text x="474.0" y="328" class="tacca-x">1</text>
<line x1="474.0" y1="308" x2="474.0" y2="313" class="griglia"/>
<text x="525.7" y="328" class="tacca-x">2</text>
<line x1="525.7" y1="308" x2="525.7" y2="313" class="griglia"/>
<text x="577.3" y="328" class="tacca-x">4</text>
<line x1="577.3" y1="308" x2="577.3" y2="313" class="griglia"/>
<text x="629.0" y="328" class="tacca-x">8</text>
<line x1="629.0" y1="308" x2="629.0" y2="313" class="griglia"/>
<text x="722.3" y="328" class="tacca-x">28</text>
<line x1="722.3" y1="308" x2="722.3" y2="313" class="griglia"/>
<text x="774.0" y="328" class="tacca-x">56</text>
<line x1="774.0" y1="308" x2="774.0" y2="313" class="griglia"/>
<path d="M474.0,141.3 L525.7,178.6 L577.3,222.5 L629.0,245.3 L722.3,263.2 L774.0,260.0" fill="none" stroke="#2a78d6" stroke-width="2" stroke-linejoin="round"/>
<circle cx="474.0" cy="141.3" r="4.5" fill="#2a78d6" stroke="var(--riquadro)" stroke-width="2"/>
<circle cx="525.7" cy="178.6" r="4.5" fill="#2a78d6" stroke="var(--riquadro)" stroke-width="2"/>
<circle cx="577.3" cy="222.5" r="4.5" fill="#2a78d6" stroke="var(--riquadro)" stroke-width="2"/>
<circle cx="629.0" cy="245.3" r="4.5" fill="#2a78d6" stroke="var(--riquadro)" stroke-width="2"/>
<circle cx="722.3" cy="263.2" r="4.5" fill="#2a78d6" stroke="var(--riquadro)" stroke-width="2"/>
<circle cx="774.0" cy="260.0" r="4.5" fill="#2a78d6" stroke="var(--riquadro)" stroke-width="2"/>
<path d="M474.0,141.3 L525.7,160.7 L577.3,172.8 L629.0,179.7 L722.3,224.0 L774.0,214.2" fill="none" stroke="#eb6834" stroke-width="2" stroke-linejoin="round"/>
<circle cx="474.0" cy="141.3" r="4.5" fill="#eb6834" stroke="var(--riquadro)" stroke-width="2"/>
<circle cx="525.7" cy="160.7" r="4.5" fill="#eb6834" stroke="var(--riquadro)" stroke-width="2"/>
<circle cx="577.3" cy="172.8" r="4.5" fill="#eb6834" stroke="var(--riquadro)" stroke-width="2"/>
<circle cx="629.0" cy="179.7" r="4.5" fill="#eb6834" stroke="var(--riquadro)" stroke-width="2"/>
<circle cx="722.3" cy="224.0" r="4.5" fill="#eb6834" stroke="var(--riquadro)" stroke-width="2"/>
<circle cx="774.0" cy="214.2" r="4.5" fill="#eb6834" stroke="var(--riquadro)" stroke-width="2"/>
<path d="M474.0,141.3 L525.7,141.3 L577.3,141.3 L629.0,141.3 L722.3,141.3 L774.0,141.3" fill="none" stroke="#8a8a83" stroke-width="2" stroke-linejoin="round"/>
<line x1="74.0" y1="378.0" x2="100.0" y2="378.0" stroke="#2a78d6" stroke-width="2"/>
<text x="106.0" y="382.0" class="legenda">schur, processi</text>
<line x1="225.0" y1="378.0" x2="251.0" y2="378.0" stroke="#2a78d6" stroke-width="2" stroke-dasharray="6,4"/>
<text x="257.0" y="382.0" class="legenda">schur, thread</text>
<line x1="363.6" y1="378.0" x2="389.6" y2="378.0" stroke="#eb6834" stroke-width="2"/>
<text x="395.6" y="382.0" class="legenda">pipeline, processi</text>
<line x1="533.2" y1="378.0" x2="559.2" y2="378.0" stroke="#eb6834" stroke-width="2" stroke-dasharray="6,4"/>
<text x="565.2" y="382.0" class="legenda">pipeline, thread</text>
<line x1="690.4" y1="378.0" x2="716.4" y2="378.0" stroke="#8a8a83" stroke-width="2"/>
<text x="722.4" y="382.0" class="legenda">ideale</text>
</svg>